<svg width="45" height="46" viewBox="0 0 45 46" fill="none" xmlns="http://www.w3.org/2000/svg">
<g clip-path="url(#clip0)">
<rect y="14.355" width="34" height="34" rx="3" transform="rotate(-23.5 0 14.355)" fill="#FFD100"/>
<path d="M0.847342 16.3037C0.622613 15.7869 0.612403 15.2019 0.818957 14.6776C1.02551 14.1532 1.43191 13.7324 1.94875 13.5076L29.2313 1.64485C29.7481 1.42013 30.3331 1.40991 30.8574 1.61647C31.3818 1.82302 31.8027 2.22942 32.0274 2.74626L43.8902 30.0288C44.1149 30.5456 44.1251 31.1306 43.9186 31.655C43.712 32.1793 43.3056 32.6002 42.7888 32.8249L15.5062 44.6877C14.9894 44.9124 14.4044 44.9226 13.8801 44.7161C13.3557 44.5095 12.9349 44.1031 12.7101 43.5863L0.847342 16.3037ZM8.64235 12.9144L13.7264 24.6069L29.3164 17.8281L24.2324 6.13563L8.64235 12.9144ZM31.0111 21.7257L15.4211 28.5044L20.5051 40.1969L36.0952 33.4182L31.0111 21.7257ZM2.79609 15.4564L4.49078 19.3539L8.38828 17.6592L6.6936 13.7617L2.79609 15.4564ZM9.23562 19.608L5.33812 21.3026L7.0328 25.2002L10.9303 23.5055L9.23562 19.608ZM7.88014 27.1489L9.57483 31.0464L13.4723 29.3517L11.7777 25.4542L7.88014 27.1489ZM14.3197 31.3005L10.4222 32.9952L12.1169 36.8927L16.0144 35.198L14.3197 31.3005ZM12.9642 38.8414L14.6589 42.7389L18.5564 41.0442L16.8617 37.1467L12.9642 38.8414ZM30.0786 3.59361L26.1811 5.28829L27.8758 9.1858L31.7733 7.49111L30.0786 3.59361ZM28.7232 11.1345L30.4178 15.0321L34.3153 13.3374L32.6207 9.43986L28.7232 11.1345ZM35.1627 15.2861L31.2652 16.9808L32.9599 20.8783L36.8574 19.1836L35.1627 15.2861ZM33.8072 22.8271L35.5019 26.7246L39.3994 25.0299L37.7047 21.1324L33.8072 22.8271ZM40.2467 26.9786L36.3492 28.6733L38.0439 32.5708L41.9414 30.8761L40.2467 26.9786Z" fill="#3D0066"/>
</g>
<defs>
<clipPath id="clip0">
<rect y="14.355" width="34" height="34" rx="3" transform="rotate(-23.5 0 14.355)" fill="white"/>
</clipPath>
</defs>
</svg>
